# xmcd
#
# Track frame offsets: 
#        182
#        12600
#        22590
#        37322
#        50350
#        61812
#        74290
#        84670
#        96860
#        105575
#        115107
#        126820
#        138165
#        150335
#        162572
#        173690
#        185517
#        199330
#        211767
#        223325
#        235290
#        248250
#
# Disc length: 3480 seconds
#
# Revision: 2
# Processed by: cddbd v1.4PL0 Copyright (c) Steve Scherf et al.
# Submitted via: ExactAudioCopy v0.90b2
#
DISCID=2b0d9616
DTITLE=Sam Cooke - All Hits
DYEAR=1900
DGENRE=
TTITLE0=You Send Me
TTITLE1=I'll Come Running Back To You
TTITLE2=(I Love You) For Sentimental Reasons
TTITLE3=You Were Made For Me
TTITLE4=Lonely Island
TTITLE5=Win Your Love For Me
TTITLE6=Love You Most Of All
TTITLE7=Everybody Likes To Cha Cha Cha
TTITLE8=Only Sixteen
TTITLE9=Wonderful World
TTITLE10=Chain Gang
TTITLE11=Cupid
TTITLE12=Twistin' The Nite Away
TTITLE13=Bring It On Home To Me
TTITLE14=Having A Party
TTITLE15=Nothing Can Change This Love
TTITLE16=Somebody Have Mercy
TTITLE17=Send Me Some Lovin'
TTITLE18=Another Saturday Night
TTITLE19=Frankie and Johnny
TTITLE20=Little Red Rooster
TTITLE21=Shake
EXTD=
EXTT0=
EXTT1=
EXTT2=
EXTT3=
EXTT4=
EXTT5=
EXTT6=
EXTT7=
EXTT8=
EXTT9=
EXTT10=
EXTT11=
EXTT12=
EXTT13=
EXTT14=
EXTT15=
EXTT16=
EXTT17=
EXTT18=
EXTT19=
EXTT20=
EXTT21=
PLAYORDER=
